# xmcd
#
# Track frame offsets:
#	150
#	5795
#	18035
#	34915
#	47290
#	63010
#	77895
#	99388
#	108730
#	132753
#	142378
#	157225
#	188325
#	208368
#	225783
#	238685
#	249105
#
# Disc length: 3446 seconds
#
# Revision: 0
# Processed by: cddbd v1.5.2PL0 Copyright (c) Steve Scherf et al.
# Submitted via: audiograbber 1.80
#
DISCID=d90d7411
DTITLE=Barbara - CHATELET 87
DYEAR=1900
DGENRE=
TTITLE0=O mes théatres
TTITLE1=Remusat
TTITLE2=Mon enfance
TTITLE3=La mort
TTITLE4=Seule
TTITLE5=L'ile au mimosas
TTITLE6=Le soleil noir
TTITLE7=Le piano noir
TTITLE8=Ma plus belle histoire d'amour
TTITLE9=Présentations des musiciens
TTITLE10=Pierre
TTITLE11=Le mal de vivre
TTITLE12=L'aigle noir
TTITLE13=Nantes
TTITLE14=Gottingen
TTITLE15=Lily Passion
TTITLE16=Dis quand reviendras tu?
EXTD=
EXTT0=
EXTT1=
EXTT2=
EXTT3=
EXTT4=
EXTT5=
EXTT6=
EXTT7=
EXTT8=
EXTT9=
EXTT10=
EXTT11=
EXTT12=
EXTT13=
EXTT14=
EXTT15=
EXTT16=
PLAYORDER=
